<?xml version="1.0" encoding="utf-8"?>
<!-- Generator: Adobe Illustrator 23.0.1, SVG Export Plug-In . SVG Version: 6.00 Build 0)  -->
<svg version="1.1" id="Layer_1" xmlns="http://www.w3.org/2000/svg" xmlns:xlink="http://www.w3.org/1999/xlink" x="0px" y="0px"
	 viewBox="0 0 112 26" style="enable-background:new 0 0 112 26;" xml:space="preserve">
<g>
	<path d="M7.4,22.8l-1.2-5.5L3.6,6.4C3.4,5.6,3.2,5.1,3,5C2.8,4.9,2.3,4.8,1.6,4.7L1.5,4.6V4l0.1-0.1C2.8,4,4,4,4.9,4
		c0.7,0,1.8,0,3.2-0.1L8.3,4v0.6L8.1,4.7c-1,0-1.6,0.1-1.8,0.1C6.2,4.9,6.1,5.1,6.1,5.3c0,0.2,0.1,0.8,0.3,1.7
		c0.2,1,0.3,1.8,0.5,2.4l2.1,9.1l3.3-8.1c0.9-2.1,1.7-4.4,2.5-6.7h0.8c0.7,2.2,1.4,4.3,2.2,6.4l3.1,8.6l2.2-7.9
		c0.2-0.8,0.5-1.9,0.8-3.3s0.5-2.1,0.5-2.3c0-0.2-0.1-0.4-0.3-0.4c-0.2-0.1-0.9-0.1-1.9-0.1L22,4.6V4l0.1-0.1C23.6,4,24.5,4,24.8,4
		c0.3,0,1.2,0,2.7-0.1L27.7,4v0.6l-0.1,0.1c-0.5,0-0.8,0.1-1,0.1c-0.2,0.1-0.3,0.2-0.4,0.3c-0.1,0.2-0.3,0.6-0.5,1.4L24.9,9
		l-1.4,4.4c-0.2,0.6-0.5,1.9-1.1,3.9L21,22.8h-1.3c-0.9-2.7-1.7-4.9-2.3-6.5l-3-8.1l-2.6,6.5l-1.4,3.7c-0.4,1-0.7,1.8-0.9,2.4
		l-0.7,2.1H7.4z"/>
	<path d="M38,20.6l-0.4,0.9c-0.9,0.6-1.7,1-2.4,1.1c-0.7,0.2-1.4,0.3-1.9,0.3c-1.1,0-2.1-0.2-3-0.6c-0.9-0.4-1.7-1.1-2.3-2.1
		c-0.6-1-0.9-2.2-0.9-3.6c0-0.9,0.1-1.8,0.3-2.5c0.2-0.7,0.5-1.3,0.7-1.7c0.3-0.4,0.7-0.8,1.3-1.2c0.6-0.4,1.2-0.8,1.9-1.1
		c0.7-0.3,1.4-0.4,2.2-0.4c1.1,0,2,0.2,2.8,0.7c0.8,0.5,1.4,1.1,1.7,1.9c0.3,0.8,0.5,1.6,0.5,2.5c0,0.3,0,0.5,0,0.8l-0.1,0.1
		c-0.6,0.1-1.4,0.2-2.4,0.3c-1,0-1.7,0.1-2,0.1h-4.2c0,1.8,0.5,3.2,1.4,4c0.9,0.9,2,1.3,3.3,1.3c0.6,0,1.2-0.1,1.8-0.3
		c0.6-0.2,1.2-0.5,1.8-0.9L38,20.6z M29.6,15.2c0.2,0,0.8,0.1,1.8,0.1c1.1,0,1.8,0.1,2.4,0.1c1.2,0,2,0,2.2-0.1c0-0.2,0-0.4,0-0.5
		c0-1.4-0.3-2.4-0.8-3c-0.6-0.7-1.3-1-2.3-1c-1,0-1.9,0.4-2.4,1.1C29.9,12.6,29.6,13.7,29.6,15.2z"/>
	<path d="M39.1,4.8L39,4.7V4.1L39.1,4c1.7-0.2,3.1-0.5,4.2-1l0.3,0.2c-0.1,1-0.1,3-0.1,6.1v3.4c0.2-0.2,0.5-0.6,0.9-1
		c0.5-0.5,0.8-0.8,1.1-1c0.3-0.2,0.7-0.3,1.2-0.5c0.5-0.1,1-0.2,1.6-0.2c1,0,1.9,0.2,2.6,0.7c0.8,0.5,1.3,1.1,1.7,2
		c0.4,0.8,0.5,1.7,0.5,2.6c0,0.9-0.2,1.7-0.5,2.5c-0.3,0.8-0.7,1.5-1.1,2c-0.2,0.3-0.7,0.7-1.3,1.1c-1.2,0.9-2.1,1.4-2.6,1.7
		c-0.5,0.2-1.1,0.3-1.9,0.3c-0.6,0-1.2-0.1-1.7-0.3c-0.5-0.2-1-0.4-1.6-0.8l-1.1,1L41,22.7c0.2-1.6,0.3-3.4,0.3-5.5v-7l-0.1-2.5
		c0-1-0.1-1.6-0.1-2c0-0.4-0.1-0.6-0.1-0.7c-0.1-0.1-0.1-0.1-0.3-0.2C40.6,4.8,40.1,4.8,39.1,4.8z M43.5,14.2v4.9
		c0,0.4,0,0.7,0.1,0.8c0,0.1,0.2,0.3,0.5,0.6c0.3,0.3,0.7,0.5,1.2,0.7c0.5,0.2,1,0.3,1.5,0.3c1.2,0,2.2-0.5,2.9-1.4
		c0.7-1,1.1-2.2,1.1-3.7c0-0.9-0.1-1.8-0.4-2.5c-0.3-0.7-0.7-1.3-1.3-1.6c-0.6-0.4-1.3-0.6-2-0.6c-0.9,0-1.6,0.3-2.3,0.8
		C44.1,13,43.7,13.5,43.5,14.2z"/>
	<path d="M55.6,18.7h0.6l0.1,0.1c0,0.7,0.1,1.4,0.1,1.9c0.3,0.4,0.7,0.7,1.4,1c0.7,0.3,1.3,0.4,2,0.4c0.9,0,1.7-0.3,2.2-0.8
		c0.6-0.5,0.8-1.1,0.8-1.8c0-0.4-0.1-0.7-0.3-1c-0.2-0.3-0.5-0.5-0.9-0.7c-0.4-0.2-1.1-0.4-2.2-0.6c-0.9-0.2-1.5-0.4-1.9-0.5
		c-0.4-0.1-0.7-0.3-1-0.6s-0.6-0.6-0.8-1c-0.2-0.4-0.3-0.9-0.3-1.3c0-1.2,0.5-2.1,1.4-2.8c0.9-0.7,2.1-1.1,3.5-1.1
		c0.6,0,1.2,0.1,1.9,0.2c0.7,0.2,1.2,0.3,1.6,0.5l0.1,0.2c-0.1,0.4-0.1,1.3-0.1,2.8l-0.1,0.1h-0.5l-0.1-0.1c0-0.5-0.1-0.9-0.1-1.1
		c-0.1-0.2-0.2-0.4-0.5-0.7c-0.3-0.2-0.6-0.5-1.1-0.6c-0.5-0.2-1-0.3-1.5-0.3c-0.5,0-1,0.1-1.3,0.2c-0.4,0.2-0.7,0.4-0.9,0.7
		c-0.2,0.3-0.3,0.7-0.3,1.2c0,0.3,0.1,0.6,0.2,0.9c0.1,0.3,0.3,0.5,0.6,0.6c0.3,0.2,0.6,0.3,0.9,0.3l1.4,0.4
		c1.2,0.3,2.1,0.6,2.6,0.8c0.5,0.2,0.9,0.6,1.2,1c0.3,0.4,0.4,1,0.4,1.6c0,1.2-0.5,2.3-1.5,3.1c-1,0.9-2.3,1.3-3.9,1.3
		c-0.6,0-1.2-0.1-2.1-0.2c-0.8-0.1-1.5-0.3-2.1-0.4l-0.1-0.2l0.1-0.9c0-0.3,0.1-0.5,0.1-0.8c0-0.3,0-0.9,0-1.7L55.6,18.7z"/>
	<path d="M68.5,13.6L68,13.5l-0.1-0.1v-1.6c1.6-1.2,3.1-1.7,4.6-1.7c1,0,1.8,0.2,2.5,0.6c0.7,0.4,1.2,0.8,1.4,1.4
		c0.3,0.6,0.4,1.2,0.4,2l-0.1,2.6v3.9c0,0.5,0,0.9,0.1,1c0.1,0.1,0.2,0.2,0.3,0.2c0.1,0,0.3,0.1,0.5,0.1l0.8,0.1l0.1,0.1v0.5
		l-0.1,0.1c-0.6-0.1-1.2-0.1-1.8-0.1c-0.5,0-1.2,0-1.9,0.1l-0.2-0.2l0.1-2.1l-2.9,2.2c-0.5,0.2-1,0.3-1.6,0.3
		c-0.7,0-1.3-0.1-1.8-0.4c-0.5-0.3-0.9-0.6-1.2-1.1c-0.3-0.5-0.4-1-0.4-1.7c0-1.3,0.4-2.3,1.2-3c0.8-0.7,3-1.3,6.6-1.9
		c0-1.3-0.3-2.2-0.9-2.7c-0.6-0.5-1.4-0.8-2.3-0.8c-0.5,0-1,0.1-1.4,0.2c-0.4,0.2-0.7,0.3-0.7,0.4C69.2,12,69,12.5,68.5,13.6
		L68.5,13.6z M74.6,15.7c-2.5,0.4-4,0.9-4.6,1.3c-0.6,0.5-0.9,1.2-0.9,2.2c0,1.4,0.7,2.1,2,2.1c1.2,0,2.3-0.7,3.5-2V15.7z"/>
	<path d="M84.1,3l0.3,0.2c-0.1,1-0.1,3-0.1,6.1v8.3c0,0.2,0,0.8,0.1,1.9c0,1,0.1,1.7,0.1,1.8c0,0.2,0.1,0.3,0.2,0.4
		c0.1,0.1,0.2,0.1,0.3,0.2c0.1,0,0.6,0.1,1.4,0.1l0.1,0.1v0.6l-0.1,0.1c-1.1-0.1-2.2-0.1-3.2-0.1c-1,0-2.1,0-3.2,0.1l-0.1-0.1V22
		l0.1-0.1c0.9-0.1,1.3-0.1,1.4-0.1c0.1,0,0.2-0.1,0.3-0.2c0.1-0.1,0.1-0.2,0.2-0.4c0-0.2,0.1-0.7,0.1-1.7c0-1,0.1-1.7,0.1-2.2v-6.8
		L82,7.7c0-1-0.1-1.7-0.1-2c0-0.4-0.1-0.6-0.1-0.7s-0.1-0.1-0.3-0.2c-0.1,0-0.7-0.1-1.6-0.1l-0.1-0.1V4.1L79.9,4
		C81.5,3.8,83,3.5,84.1,3z"/>
	<path d="M98.7,20.6l-0.4,0.9c-0.9,0.6-1.7,1-2.4,1.1c-0.7,0.2-1.4,0.3-1.9,0.3c-1.1,0-2.1-0.2-3-0.6c-0.9-0.4-1.7-1.1-2.3-2.1
		c-0.6-1-0.9-2.2-0.9-3.6c0-0.9,0.1-1.8,0.3-2.5c0.2-0.7,0.5-1.3,0.7-1.7c0.3-0.4,0.7-0.8,1.3-1.2c0.6-0.4,1.2-0.8,1.9-1.1
		c0.7-0.3,1.4-0.4,2.2-0.4c1.1,0,2,0.2,2.8,0.7c0.8,0.5,1.4,1.1,1.7,1.9c0.3,0.8,0.5,1.6,0.5,2.5c0,0.3,0,0.5,0,0.8l-0.1,0.1
		c-0.6,0.1-1.4,0.2-2.4,0.3c-1,0-1.7,0.1-2,0.1h-4.2c0,1.8,0.5,3.2,1.4,4c0.9,0.9,2,1.3,3.3,1.3c0.6,0,1.2-0.1,1.8-0.3
		c0.6-0.2,1.2-0.5,1.8-0.9L98.7,20.6z M90.2,15.2c0.2,0,0.8,0.1,1.8,0.1c1.1,0,1.8,0.1,2.4,0.1c1.2,0,2,0,2.2-0.1c0-0.2,0-0.4,0-0.5
		c0-1.4-0.3-2.4-0.8-3c-0.6-0.7-1.3-1-2.3-1c-1,0-1.9,0.4-2.4,1.1C90.5,12.6,90.2,13.7,90.2,15.2z"/>
	<path d="M101.3,18.7h0.6l0.1,0.1c0,0.7,0.1,1.4,0.1,1.9c0.3,0.4,0.7,0.7,1.4,1c0.7,0.3,1.3,0.4,2,0.4c0.9,0,1.7-0.3,2.2-0.8
		c0.6-0.5,0.8-1.1,0.8-1.8c0-0.4-0.1-0.7-0.3-1c-0.2-0.3-0.5-0.5-0.9-0.7c-0.4-0.2-1.1-0.4-2.2-0.6c-0.9-0.2-1.5-0.4-1.9-0.5
		c-0.4-0.1-0.7-0.3-1-0.6c-0.3-0.3-0.6-0.6-0.8-1c-0.2-0.4-0.3-0.9-0.3-1.3c0-1.2,0.5-2.1,1.4-2.8c0.9-0.7,2.1-1.1,3.5-1.1
		c0.6,0,1.2,0.1,1.9,0.2c0.7,0.2,1.2,0.3,1.6,0.5l0.1,0.2c-0.1,0.4-0.1,1.3-0.1,2.8l-0.1,0.1h-0.5l-0.1-0.1c0-0.5-0.1-0.9-0.1-1.1
		c-0.1-0.2-0.2-0.4-0.5-0.7c-0.3-0.2-0.6-0.5-1.1-0.6c-0.5-0.2-1-0.3-1.5-0.3c-0.5,0-1,0.1-1.3,0.2c-0.4,0.2-0.7,0.4-0.9,0.7
		c-0.2,0.3-0.3,0.7-0.3,1.2c0,0.3,0.1,0.6,0.2,0.9c0.1,0.3,0.3,0.5,0.6,0.6c0.3,0.2,0.6,0.3,0.9,0.3l1.4,0.4
		c1.2,0.3,2.1,0.6,2.6,0.8c0.5,0.2,0.9,0.6,1.2,1c0.3,0.4,0.4,1,0.4,1.6c0,1.2-0.5,2.3-1.5,3.1c-1,0.9-2.3,1.3-3.9,1.3
		c-0.6,0-1.2-0.1-2.1-0.2c-0.8-0.1-1.5-0.3-2.1-0.4l-0.1-0.2l0.1-0.9c0-0.3,0.1-0.5,0.1-0.8c0-0.3,0-0.9,0-1.7L101.3,18.7z"/>
</g>
</svg>
